<?xml version="1.0" encoding="utf-8"?>
<!-- Generator: Adobe Illustrator 19.0.0, SVG Export Plug-In . SVG Version: 6.00 Build 0)  -->
<svg version="1.1"
	 id="svg2" xmlns:rdf="http://www.w3.org/1999/02/22-rdf-syntax-ns#" xmlns:cc="http://web.resource.org/cc/" xmlns:svg="http://www.w3.org/2000/svg" xmlns:sodipodi="http://sodipodi.sourceforge.net/DTD/sodipodi-0.dtd" xmlns:inkscape="http://www.inkscape.org/namespaces/inkscape" xmlns:dc="http://purl.org/dc/elements/1.1/" inkscape:version="0.44" sodipodi:docbase="D:\wiki_svg" sodipodi:version="0.32" sodipodi:docname="Food_and_Drug_Administration_logo.png.svg"
	 xmlns="http://www.w3.org/2000/svg" xmlns:xlink="http://www.w3.org/1999/xlink" x="0px" y="0px" viewBox="-145 199 500 215"
	 style="enable-background:new -145 199 500 215;" xml:space="preserve">
<style type="text/css">
	.st0{fill:#00539B;}
</style>
<sodipodi:namedview  height="215px" width="500px" bordercolor="#666666" objecttolerance="22.8" guidetolerance="3.5" gridtolerance="10.0" borderopacity="1.0" pagecolor="#ffffff" inkscape:cy="175.52144" showguides="false" inkscape:cx="229.29464" id="base" inkscape:zoom="1" inkscape:pageshadow="2" inkscape:guide-points="true" inkscape:showpageshadow="false" inkscape:guide-bbox="true" inkscape:window-x="11" inkscape:pageopacity="0.0" inkscape:window-y="97" inkscape:window-height="573" inkscape:current-layer="svg2" inkscape:window-width="853">
	<sodipodi:guide  position="21.885566" orientation="horizontal" id="guide1873"></sodipodi:guide>
	<sodipodi:guide  position="132.17165" orientation="horizontal" id="guide1875"></sodipodi:guide>
	<sodipodi:guide  position="119.29779" orientation="horizontal" id="guide1877"></sodipodi:guide>
	<sodipodi:guide  position="114.57737" orientation="horizontal" id="guide1879"></sodipodi:guide>
	<sodipodi:guide  position="87.542263" orientation="horizontal" id="guide1881"></sodipodi:guide>
	<sodipodi:guide  position="74.239272" orientation="horizontal" id="guide1883"></sodipodi:guide>
	<sodipodi:guide  position="68.660598" orientation="horizontal" id="guide1885"></sodipodi:guide>
	<sodipodi:guide  position="55.786736" orientation="horizontal" id="guide1887"></sodipodi:guide>
	<sodipodi:guide  position="53.211964" orientation="horizontal" id="guide1889"></sodipodi:guide>
	<sodipodi:guide  position="40.338101" orientation="horizontal" id="guide1891"></sodipodi:guide>
	<sodipodi:guide  position="35.188557" orientation="horizontal" id="guide1893"></sodipodi:guide>
	<sodipodi:guide  position="29.609883" orientation="vertical" id="guide1895"></sodipodi:guide>
	<sodipodi:guide  position="42.054616" orientation="vertical" id="guide1897"></sodipodi:guide>
	<sodipodi:guide  position="46.345904" orientation="vertical" id="guide1899"></sodipodi:guide>
	<sodipodi:guide  position="59.219766" orientation="vertical" id="guide1901"></sodipodi:guide>
	<sodipodi:guide  position="94.408322" orientation="vertical" id="guide1903"></sodipodi:guide>
	<sodipodi:guide  position="99.128739" orientation="vertical" id="guide1905"></sodipodi:guide>
	<sodipodi:guide  position="112.0026" orientation="vertical" id="guide1907"></sodipodi:guide>
	<sodipodi:guide  position="117.58127" orientation="vertical" id="guide1909"></sodipodi:guide>
	<sodipodi:guide  position="130.88427" orientation="vertical" id="guide1911"></sodipodi:guide>
	<sodipodi:guide  position="217.13914" orientation="vertical" id="guide1915"></sodipodi:guide>
	<sodipodi:guide  position="235.59168" orientation="vertical" id="guide1917"></sodipodi:guide>
</sodipodi:namedview>
<path id="path1937" sodipodi:nodetypes="cccscccccccccssccccssscccccccccccccsssccccssscccccccccccc" class="st0" d="M-109.3,402.3
	H-131V210.7c0,0,154.5,0,190,0c83.4,0,96.5,74.9,96.5,74.9l46.8-74.9h49L341,356l-28.1,46.3H194.8v-23.1h132.1L226.8,210.7
	c0,0-66,114.8-80.1,137.1c-14.2,22.4-40.8,54.4-86.3,54.4c-35.8,0-70.6,0-70.6,0v-114h22.4v90.9c0,0,28.7,0,51.4,0
	s71.6-19.4,71.6-74.2S83,233.1,65.8,233.1s-175.2,0-175.2,0L-109.3,402.3L-109.3,402.3z M-101.9,402.3V321h83.5v22.4h-61.1v58.9
	L-101.9,402.3L-101.9,402.3z M-18.4,311.3v-23.1h-61.1v-24.5c0,0,119.6,0,140.6,0s43.5,17.1,43.5,42s-22.6,42.1-38.8,42.1
	c-20.9,0-21.9,0-21.9,0v-59.6H20.8v82c0,0,21.2,0,45,0c28.5,0,61.5-24.8,61.5-63.7c0-38.6-30-65.2-65.8-65.2
	c-38.4,0-163.4,0-163.4,0v70.1L-18.4,311.3L-18.4,311.3z M124.3,402.3l102.5-169.2L311,370.2H194.8v-22.4H270l-43.2-70.4
	l-71.2,124.8L124.3,402.3L124.3,402.3z"/>
</svg>
