<?xml version="1.0" encoding="utf-8"?>
<!-- Generator: Adobe Illustrator 17.0.0, SVG Export Plug-In . SVG Version: 6.00 Build 0)  -->
<!DOCTYPE svg PUBLIC "-//W3C//DTD SVG 1.1//EN" "http://www.w3.org/Graphics/SVG/1.1/DTD/svg11.dtd">
<svg version="1.1"
	 id="svg2" sodipodi:docname="Food_and_Drug_Administration_logo.png.svg" sodipodi:version="0.32" sodipodi:docbase="D:\wiki_svg" inkscape:version="0.44" xmlns:dc="http://purl.org/dc/elements/1.1/" xmlns:cc="http://web.resource.org/cc/" xmlns:rdf="http://www.w3.org/1999/02/22-rdf-syntax-ns#" xmlns:svg="http://www.w3.org/2000/svg" xmlns:sodipodi="http://sodipodi.sourceforge.net/DTD/sodipodi-0.dtd" xmlns:inkscape="http://www.inkscape.org/namespaces/inkscape"
	 xmlns="http://www.w3.org/2000/svg" xmlns:xlink="http://www.w3.org/1999/xlink" x="0px" y="0px" width="500px" height="215px"
	 viewBox="0 0 500 215" enable-background="new 0 0 500 215" xml:space="preserve">
<sodipodi:namedview  width="500px" height="215px" id="base" inkscape:showpageshadow="false" inkscape:guide-points="true" inkscape:current-layer="svg2" inkscape:window-y="97" inkscape:window-x="11" inkscape:window-width="853" inkscape:pageshadow="2" inkscape:window-height="573" inkscape:pageopacity="0.0" inkscape:guide-bbox="true" inkscape:cy="175.52144" inkscape:cx="229.29464" inkscape:zoom="1" showguides="false" pagecolor="#ffffff" bordercolor="#666666" borderopacity="1.0" gridtolerance="10.0" guidetolerance="3.5" objecttolerance="22.8">
	<sodipodi:guide  id="guide1873" position="21.885566" orientation="horizontal"></sodipodi:guide>
	<sodipodi:guide  id="guide1875" position="132.17165" orientation="horizontal"></sodipodi:guide>
	<sodipodi:guide  id="guide1877" position="119.29779" orientation="horizontal"></sodipodi:guide>
	<sodipodi:guide  id="guide1879" position="114.57737" orientation="horizontal"></sodipodi:guide>
	<sodipodi:guide  id="guide1881" position="87.542263" orientation="horizontal"></sodipodi:guide>
	<sodipodi:guide  id="guide1883" position="74.239272" orientation="horizontal"></sodipodi:guide>
	<sodipodi:guide  id="guide1885" position="68.660598" orientation="horizontal"></sodipodi:guide>
	<sodipodi:guide  id="guide1887" position="55.786736" orientation="horizontal"></sodipodi:guide>
	<sodipodi:guide  id="guide1889" position="53.211964" orientation="horizontal"></sodipodi:guide>
	<sodipodi:guide  id="guide1891" position="40.338101" orientation="horizontal"></sodipodi:guide>
	<sodipodi:guide  id="guide1893" position="35.188557" orientation="horizontal"></sodipodi:guide>
	<sodipodi:guide  id="guide1895" position="29.609883" orientation="vertical"></sodipodi:guide>
	<sodipodi:guide  id="guide1897" position="42.054616" orientation="vertical"></sodipodi:guide>
	<sodipodi:guide  id="guide1899" position="46.345904" orientation="vertical"></sodipodi:guide>
	<sodipodi:guide  id="guide1901" position="59.219766" orientation="vertical"></sodipodi:guide>
	<sodipodi:guide  id="guide1903" position="94.408322" orientation="vertical"></sodipodi:guide>
	<sodipodi:guide  id="guide1905" position="99.128739" orientation="vertical"></sodipodi:guide>
	<sodipodi:guide  id="guide1907" position="112.0026" orientation="vertical"></sodipodi:guide>
	<sodipodi:guide  id="guide1909" position="117.58127" orientation="vertical"></sodipodi:guide>
	<sodipodi:guide  id="guide1911" position="130.88427" orientation="vertical"></sodipodi:guide>
	<sodipodi:guide  id="guide1915" position="217.13914" orientation="vertical"></sodipodi:guide>
	<sodipodi:guide  id="guide1917" position="235.59168" orientation="vertical"></sodipodi:guide>
</sodipodi:namedview>
<path id="path1937" sodipodi:nodetypes="cccscccccccccssccccssscccccccccccccsssccccssscccccccccccc" fill="#FFFFFF" d="
	M35.653,203.278H14.038V11.722c0,0,154.452,0,190.028,0c83.355,0,96.509,74.881,96.509,74.881l46.775-74.881h49.015l89.597,145.241
	l-28.068,46.314H339.756v-23.106h132.137L371.806,11.722c0,0-65.964,114.784-80.125,137.145
	c-14.162,22.361-40.763,54.411-86.327,54.411c-35.777,0-70.569,0-70.569,0V89.239h22.361v90.933c0,0,28.685,0,51.429,0
	s71.554-19.379,71.554-74.162s-52.175-71.926-69.318-71.926s-175.157,0-175.157,0V203.278z M43.107,203.278v-81.243h83.479v22.361
	H65.467v58.883H43.107z M126.586,112.345V89.239H65.467V64.731c0,0,119.554,0,140.635,0s43.466,17.054,43.466,42.023
	s-22.625,42.112-38.758,42.112c-20.87,0-21.924,0-21.924,0V89.239h-23.106v81.989c0,0,21.179,0,45.03,0
	c28.52,0,61.491-24.754,61.491-63.727c0-38.601-29.986-65.218-65.844-65.218c-38.386,0-163.352,0-163.352,0v70.063H126.586z
	 M269.321,203.278L371.806,34.083l84.225,137.145H339.756v-22.361h75.28l-43.23-70.436l-71.181,124.846H269.321z"/>
</svg>
