<?xml version="1.0" encoding="utf-8"?>
<!-- Generator: Adobe Illustrator 18.1.1, SVG Export Plug-In . SVG Version: 6.00 Build 0)  -->
<svg version="1.1" id="Layer_1" xmlns="http://www.w3.org/2000/svg" xmlns:xlink="http://www.w3.org/1999/xlink" x="0px" y="0px"
	 viewBox="0 0 461 150" enable-background="new 0 0 461 150" xml:space="preserve">
<path fill="#99CCCC" d="M142.9,110.5H9.4c-3.3,0-6-2.7-6-6V57.6c0-3.3,2.7-6,6-6h133.5c3.3,0,6,2.7,6,6v46.9
	C148.9,107.8,146.2,110.5,142.9,110.5z"/>
<path fill="#00549B" d="M297.6,110.5H164.1c-3.3,0-6-2.7-6-6V57.6c0-3.3,2.7-6,6-6h133.5c3.3,0,6,2.7,6,6v46.9
	C303.6,107.8,300.9,110.5,297.6,110.5z"/>
<g>
	<path d="M36.6,87.7c-0.4,0-1.6-1.4-2-1.8l-1.5,1.5l3.4,3.4c0.3,0.3,0.4,0.7,0.4,1c0,0.9-1,1.8-1.8,1.8c-0.4,0-0.8-0.2-1-0.4
		L23.8,82.9c-1.6,1.2-3.6,2-5.6,2c-3.3,0-5.7-2.3-5.7-5.7c0-5,5-10.1,10.1-10.1c3.3,0,5.7,2.3,5.7,5.7c0,2-0.8,4-2,5.6l5.5,5.5
		l1.5-1.5c-0.3-0.3-1.8-1.6-1.8-2c0-0.4,1.4-1.8,1.8-1.8c0.1,0,0.3,0.1,0.4,0.2c0.6,0.6,4.9,4.6,4.9,5.1
		C38.4,86.3,36.9,87.7,36.6,87.7z M22.3,72.2c-1.6,0-3,1.3-3,3c0,0.4,0.1,0.9,0.3,1.3c-0.4-0.2-0.8-0.3-1.3-0.3c-1.6,0-3,1.3-3,3
		s1.3,3,3,3s3-1.3,3-3c0-0.4-0.1-0.9-0.3-1.3c0.4,0.2,0.8,0.3,1.3,0.3c1.6,0,3-1.3,3-3S24,72.2,22.3,72.2z"/>
	<path d="M50.8,72.9v19.5c0,0.3-0.2,0.5-0.5,0.5h-1c-0.3,0-0.5-0.2-0.5-0.5V72.9c-0.6-0.3-1-1-1-1.7c0-1.1,0.9-2,2-2s2,0.9,2,2
		C51.8,71.9,51.4,72.5,50.8,72.9z M74.4,83.9c0,0.4-0.2,0.7-0.5,0.9c-0.1,0-0.2,0.1-0.3,0.1c-1,0.5-3.3,1.8-5.7,1.8
		c-0.9,0-1.7-0.2-2.4-0.5l-0.4-0.2c-1.6-0.8-2.8-1.4-4.7-1.4c-2.2,0-5.3,1.2-7.1,2.2c-0.2,0.1-0.3,0.1-0.5,0.1s-0.3,0-0.5-0.1
		c-0.3-0.2-0.5-0.5-0.5-0.9V74.5c0-0.3,0.2-0.7,0.5-0.8c1-0.6,4.5-2.5,7.7-2.5c2.6,0,4.7,0.9,6.4,1.8c0.4,0.2,0.9,0.3,1.4,0.3
		c1.8,0,3.8-1.2,4.8-1.7c0.2-0.1,0.4-0.2,0.5-0.3c0.3-0.2,0.7-0.1,1,0c0.3,0.2,0.5,0.5,0.5,0.8V83.9z M59.7,73.2
		c-1.9,0.1-4.2,1-5.9,1.9V78c1.8-0.9,4-1.7,5.9-1.8V73.2z M59.7,79.7c-1.9,0.2-4.1,0.9-5.9,1.8v2.8c1.8-0.8,4-1.5,5.9-1.7V79.7z
		 M72.5,80.5c-1.4,0.7-3.8,1.7-5.9,1.1v-3.4c-0.2-0.1-0.4-0.1-0.6-0.2c-1.8-0.9-3.2-1.7-5.5-1.7c-0.2,0-0.5,0-0.8,0v3.4
		c0.1,0,0.2,0,0.3,0c2.3,0,4.2,0.8,6,1.7c0.2,0.1,0.4,0.2,0.6,0.2v2.9c0.4,0.2,0.9,0.3,1.4,0.3c1.7,0,3.5-0.9,4.5-1.4V80.5z
		 M72.5,73.8c-1.2,0.7-3,1.4-4.7,1.4c-0.4,0-0.8,0-1.2-0.1v3c2.1,0.6,4.5-0.6,5.9-1.4V73.8z"/>
	<path d="M103,74.6c0,0.3-0.2,0.5-0.5,0.5H101v14.6c0,1.7-1.1,3.1-2.5,3.1H85.8c-1.4,0-2.5-1.4-2.5-3.1V75.1h-1.5
		c-0.3,0-0.5-0.2-0.5-0.5v-1c0-0.3,0.2-0.5,0.5-0.5h4.7l1.1-2.6c0.3-0.8,1.2-1.4,2-1.4h4.9c0.8,0,1.7,0.6,2,1.4l1.1,2.6h4.7
		c0.3,0,0.5,0.2,0.5,0.5V74.6z M89.2,77.6c0-0.3-0.2-0.5-0.5-0.5h-1c-0.3,0-0.5,0.2-0.5,0.5v10.8c0,0.3,0.2,0.5,0.5,0.5h1
		c0.3,0,0.5-0.2,0.5-0.5V77.6z M95.6,73.2l-0.7-1.8c0-0.1-0.2-0.2-0.3-0.2h-4.9c-0.1,0-0.2,0.1-0.3,0.2l-0.8,1.8H95.6z M93.1,77.6
		c0-0.3-0.2-0.5-0.5-0.5h-1c-0.3,0-0.5,0.2-0.5,0.5v10.8c0,0.3,0.2,0.5,0.5,0.5h1c0.3,0,0.5-0.2,0.5-0.5V77.6z M97.1,77.6
		c0-0.3-0.2-0.5-0.5-0.5h-1c-0.3,0-0.5,0.2-0.5,0.5v10.8c0,0.3,0.2,0.5,0.5,0.5h1c0.3,0,0.5-0.2,0.5-0.5V77.6z"/>
	<path d="M137.4,68.4L133.4,92c0,0.3-0.2,0.5-0.5,0.7c-0.1,0.1-0.3,0.1-0.5,0.1c-0.1,0-0.2,0-0.4-0.1l-7-2.8l-3.7,4.5
		c-0.2,0.2-0.5,0.4-0.8,0.4c-0.1,0-0.2,0-0.3-0.1c-0.4-0.1-0.6-0.5-0.6-0.9v-5.4l13.3-16.3l-16.4,14.2l-6.1-2.5
		c-0.4-0.1-0.6-0.5-0.6-0.8c0-0.4,0.2-0.7,0.5-0.9l25.6-14.8c0.2-0.1,0.3-0.1,0.5-0.1c0.2,0,0.4,0.1,0.6,0.2
		C137.3,67.7,137.4,68,137.4,68.4z"/>
</g>
<path fill="none" stroke="#BCBEC0" stroke-miterlimit="10" d="M451.7,110.5H318.2c-3.3,0-6-2.7-6-6V57.6c0-3.3,2.7-6,6-6h133.5
	c3.3,0,6,2.7,6,6v46.9C457.7,107.8,455,110.5,451.7,110.5z"/>
<g>
	<path fill="#A3C656" d="M347.3,87.7c-0.4,0-1.6-1.4-2-1.8l-1.5,1.5l3.4,3.4c0.3,0.3,0.4,0.7,0.4,1c0,0.9-1,1.8-1.8,1.8
		c-0.4,0-0.8-0.2-1-0.4l-10.3-10.3c-1.6,1.2-3.6,2-5.6,2c-3.3,0-5.7-2.3-5.7-5.7c0-5,5-10.1,10.1-10.1c3.3,0,5.7,2.3,5.7,5.7
		c0,2-0.8,4-2,5.6l5.5,5.5l1.5-1.5c-0.3-0.3-1.8-1.6-1.8-2c0-0.4,1.4-1.8,1.8-1.8c0.1,0,0.3,0.1,0.4,0.2c0.6,0.6,4.9,4.6,4.9,5.1
		C349.1,86.3,347.7,87.7,347.3,87.7z M333,72.2c-1.6,0-3,1.3-3,3c0,0.4,0.1,0.9,0.3,1.3c-0.4-0.2-0.8-0.3-1.3-0.3c-1.6,0-3,1.3-3,3
		s1.3,3,3,3s3-1.3,3-3c0-0.4-0.1-0.9-0.3-1.3c0.4,0.2,0.8,0.3,1.3,0.3c1.6,0,3-1.3,3-3S334.7,72.2,333,72.2z"/>
	<path fill="#A3C656" d="M361.6,72.9v19.5c0,0.3-0.2,0.5-0.5,0.5h-1c-0.3,0-0.5-0.2-0.5-0.5V72.9c-0.6-0.3-1-1-1-1.7
		c0-1.1,0.9-2,2-2s2,0.9,2,2C362.5,71.9,362.1,72.5,361.6,72.9z M385.2,83.9c0,0.4-0.2,0.7-0.5,0.9c-0.1,0-0.2,0.1-0.3,0.1
		c-1,0.5-3.3,1.8-5.7,1.8c-0.9,0-1.7-0.2-2.4-0.5l-0.4-0.2c-1.6-0.8-2.8-1.4-4.7-1.4c-2.2,0-5.3,1.2-7.1,2.2
		c-0.2,0.1-0.3,0.1-0.5,0.1s-0.3,0-0.5-0.1c-0.3-0.2-0.5-0.5-0.5-0.9V74.5c0-0.3,0.2-0.7,0.5-0.8c1-0.6,4.5-2.5,7.7-2.5
		c2.6,0,4.7,0.9,6.4,1.8c0.4,0.2,0.9,0.3,1.4,0.3c1.8,0,3.8-1.2,4.8-1.7c0.2-0.1,0.4-0.2,0.5-0.3c0.3-0.2,0.7-0.1,1,0
		c0.3,0.2,0.5,0.5,0.5,0.8V83.9z M370.4,73.2c-1.9,0.1-4.2,1-5.9,1.9V78c1.8-0.9,4-1.7,5.9-1.8V73.2z M370.4,79.7
		c-1.9,0.2-4.1,0.9-5.9,1.8v2.8c1.8-0.8,4-1.5,5.9-1.7V79.7z M383.2,80.5c-1.4,0.7-3.8,1.7-5.9,1.1v-3.4c-0.2-0.1-0.4-0.1-0.6-0.2
		c-1.8-0.9-3.2-1.7-5.5-1.7c-0.2,0-0.5,0-0.8,0v3.4c0.1,0,0.2,0,0.3,0c2.3,0,4.2,0.8,6,1.7c0.2,0.1,0.4,0.2,0.6,0.2v2.9
		c0.4,0.2,0.9,0.3,1.4,0.3c1.7,0,3.5-0.9,4.5-1.4V80.5z M383.2,73.8c-1.2,0.7-3,1.4-4.7,1.4c-0.4,0-0.8,0-1.2-0.1v3
		c2.1,0.6,4.5-0.6,5.9-1.4V73.8z"/>
	<path fill="#A3C656" d="M413.7,74.6c0,0.3-0.2,0.5-0.5,0.5h-1.5v14.6c0,1.7-1.1,3.1-2.5,3.1h-12.8c-1.4,0-2.5-1.4-2.5-3.1V75.1
		h-1.5c-0.3,0-0.5-0.2-0.5-0.5v-1c0-0.3,0.2-0.5,0.5-0.5h4.7l1.1-2.6c0.3-0.8,1.2-1.4,2-1.4h4.9c0.8,0,1.7,0.6,2,1.4l1.1,2.6h4.7
		c0.3,0,0.5,0.2,0.5,0.5V74.6z M399.9,77.6c0-0.3-0.2-0.5-0.5-0.5h-1c-0.3,0-0.5,0.2-0.5,0.5v10.8c0,0.3,0.2,0.5,0.5,0.5h1
		c0.3,0,0.5-0.2,0.5-0.5V77.6z M406.3,73.2l-0.7-1.8c0-0.1-0.2-0.2-0.3-0.2h-4.9c-0.1,0-0.2,0.1-0.3,0.2l-0.8,1.8H406.3z
		 M403.8,77.6c0-0.3-0.2-0.5-0.5-0.5h-1c-0.3,0-0.5,0.2-0.5,0.5v10.8c0,0.3,0.2,0.5,0.5,0.5h1c0.3,0,0.5-0.2,0.5-0.5V77.6z
		 M407.8,77.6c0-0.3-0.2-0.5-0.5-0.5h-1c-0.3,0-0.5,0.2-0.5,0.5v10.8c0,0.3,0.2,0.5,0.5,0.5h1c0.3,0,0.5-0.2,0.5-0.5V77.6z"/>
	<path fill="#A3C656" d="M448.1,68.4L444.1,92c0,0.3-0.2,0.5-0.5,0.7c-0.1,0.1-0.3,0.1-0.5,0.1c-0.1,0-0.2,0-0.4-0.1l-7-2.8
		l-3.7,4.5c-0.2,0.2-0.5,0.4-0.8,0.4c-0.1,0-0.2,0-0.3-0.1c-0.4-0.1-0.6-0.5-0.6-0.9v-5.4l13.3-16.3l-16.4,14.2l-6.1-2.5
		c-0.4-0.1-0.6-0.5-0.6-0.8c0-0.4,0.2-0.7,0.5-0.9l25.6-14.8c0.2-0.1,0.3-0.1,0.5-0.1c0.2,0,0.4,0.1,0.6,0.2
		C448,67.7,448.1,68,448.1,68.4z"/>
</g>
<g>
	<path fill="#FFFFFF" d="M191.3,87.7c-0.4,0-1.6-1.4-2-1.8l-1.5,1.5l3.4,3.4c0.3,0.3,0.4,0.7,0.4,1c0,0.9-1,1.8-1.8,1.8
		c-0.4,0-0.8-0.2-1-0.4l-10.3-10.3c-1.6,1.2-3.6,2-5.6,2c-3.3,0-5.7-2.3-5.7-5.7c0-5,5-10.1,10.1-10.1c3.3,0,5.7,2.3,5.7,5.7
		c0,2-0.8,4-2,5.6l5.5,5.5l1.5-1.5c-0.3-0.3-1.8-1.6-1.8-2c0-0.4,1.4-1.8,1.8-1.8c0.1,0,0.3,0.1,0.4,0.2c0.6,0.6,4.9,4.6,4.9,5.1
		C193.1,86.3,191.6,87.7,191.3,87.7z M177,72.2c-1.6,0-3,1.3-3,3c0,0.4,0.1,0.9,0.3,1.3c-0.4-0.2-0.8-0.3-1.3-0.3c-1.6,0-3,1.3-3,3
		s1.3,3,3,3s3-1.3,3-3c0-0.4-0.1-0.9-0.3-1.3c0.4,0.2,0.8,0.3,1.3,0.3c1.6,0,3-1.3,3-3S178.7,72.2,177,72.2z"/>
	<path fill="#FFFFFF" d="M205.5,72.9v19.5c0,0.3-0.2,0.5-0.5,0.5h-1c-0.3,0-0.5-0.2-0.5-0.5V72.9c-0.6-0.3-1-1-1-1.7
		c0-1.1,0.9-2,2-2s2,0.9,2,2C206.5,71.9,206.1,72.5,205.5,72.9z M229.1,83.9c0,0.4-0.2,0.7-0.5,0.9c-0.1,0-0.2,0.1-0.3,0.1
		c-1,0.5-3.3,1.8-5.7,1.8c-0.9,0-1.7-0.2-2.4-0.5l-0.4-0.2c-1.6-0.8-2.8-1.4-4.7-1.4c-2.2,0-5.3,1.2-7.1,2.2
		c-0.2,0.1-0.3,0.1-0.5,0.1s-0.3,0-0.5-0.1c-0.3-0.2-0.5-0.5-0.5-0.9V74.5c0-0.3,0.2-0.7,0.5-0.8c1-0.6,4.5-2.5,7.7-2.5
		c2.6,0,4.7,0.9,6.4,1.8c0.4,0.2,0.9,0.3,1.4,0.3c1.8,0,3.8-1.2,4.8-1.7c0.2-0.1,0.4-0.2,0.5-0.3c0.3-0.2,0.7-0.1,1,0
		c0.3,0.2,0.5,0.5,0.5,0.8V83.9z M214.4,73.2c-1.9,0.1-4.2,1-5.9,1.9V78c1.8-0.9,4-1.7,5.9-1.8V73.2z M214.4,79.7
		c-1.9,0.2-4.1,0.9-5.9,1.8v2.8c1.8-0.8,4-1.5,5.9-1.7V79.7z M227.2,80.5c-1.4,0.7-3.8,1.7-5.9,1.1v-3.4c-0.2-0.1-0.4-0.1-0.6-0.2
		c-1.8-0.9-3.2-1.7-5.5-1.7c-0.2,0-0.5,0-0.8,0v3.4c0.1,0,0.2,0,0.3,0c2.3,0,4.2,0.8,6,1.7c0.2,0.1,0.4,0.2,0.6,0.2v2.9
		c0.4,0.2,0.9,0.3,1.4,0.3c1.7,0,3.5-0.9,4.5-1.4V80.5z M227.2,73.8c-1.2,0.7-3,1.4-4.7,1.4c-0.4,0-0.8,0-1.2-0.1v3
		c2.1,0.6,4.5-0.6,5.9-1.4V73.8z"/>
	<path fill="#FFFFFF" d="M257.7,74.6c0,0.3-0.2,0.5-0.5,0.5h-1.5v14.6c0,1.7-1.1,3.1-2.5,3.1h-12.8c-1.4,0-2.5-1.4-2.5-3.1V75.1
		h-1.5c-0.3,0-0.5-0.2-0.5-0.5v-1c0-0.3,0.2-0.5,0.5-0.5h4.7l1.1-2.6c0.3-0.8,1.2-1.4,2-1.4h4.9c0.8,0,1.7,0.6,2,1.4l1.1,2.6h4.7
		c0.3,0,0.5,0.2,0.5,0.5V74.6z M243.9,77.6c0-0.3-0.2-0.5-0.5-0.5h-1c-0.3,0-0.5,0.2-0.5,0.5v10.8c0,0.3,0.2,0.5,0.5,0.5h1
		c0.3,0,0.5-0.2,0.5-0.5V77.6z M250.3,73.2l-0.7-1.8c0-0.1-0.2-0.2-0.3-0.2h-4.9c-0.1,0-0.2,0.1-0.3,0.2l-0.8,1.8H250.3z
		 M247.8,77.6c0-0.3-0.2-0.5-0.5-0.5h-1c-0.3,0-0.5,0.2-0.5,0.5v10.8c0,0.3,0.2,0.5,0.5,0.5h1c0.3,0,0.5-0.2,0.5-0.5V77.6z
		 M251.8,77.6c0-0.3-0.2-0.5-0.5-0.5h-1c-0.3,0-0.5,0.2-0.5,0.5v10.8c0,0.3,0.2,0.5,0.5,0.5h1c0.3,0,0.5-0.2,0.5-0.5V77.6z"/>
	<path fill="#FFFFFF" d="M292.1,68.4L288.1,92c0,0.3-0.2,0.5-0.5,0.7c-0.1,0.1-0.3,0.1-0.5,0.1c-0.1,0-0.2,0-0.4-0.1l-7-2.8
		l-3.7,4.5c-0.2,0.2-0.5,0.4-0.8,0.4c-0.1,0-0.2,0-0.3-0.1c-0.4-0.1-0.6-0.5-0.6-0.9v-5.4l13.3-16.3l-16.4,14.2l-6.1-2.5
		c-0.4-0.1-0.6-0.5-0.6-0.8c0-0.4,0.2-0.7,0.5-0.9l25.6-14.8c0.2-0.1,0.3-0.1,0.5-0.1c0.2,0,0.4,0.1,0.6,0.2
		C292,67.7,292.1,68,292.1,68.4z"/>
</g>
</svg>
