<?xml version="1.0" encoding="utf-8"?>
<!-- Generator: Adobe Illustrator 18.1.1, SVG Export Plug-In . SVG Version: 6.00 Build 0)  -->
<svg version="1.1" id="Layer_1" xmlns="http://www.w3.org/2000/svg" xmlns:xlink="http://www.w3.org/1999/xlink" x="0px" y="0px"
	 viewBox="0 0 367 213.8" enable-background="new 0 0 367 213.8" xml:space="preserve">
<g>
	<path fill="#E2C751" d="M57.8,86.4L33.2,62.7c-0.3-0.3-9-8.2-9-17.6c0-11.5,7-18.4,18.8-18.4c6.9,0,13.3,5.4,16.4,8.5
		c3.1-3.1,9.6-8.5,16.4-8.5c11.8,0,18.8,6.9,18.8,18.4c0,9.4-8.6,17.3-9,17.7L61.2,86.4c-0.5,0.5-1.1,0.7-1.7,0.7
		S58.2,86.8,57.8,86.4z"/>
	<path fill="#E2C751" d="M162.1,87.1h-45.3c-5.5,0-7.6-3.8-4.7-8.5L132,47.4V31.7h-2.5c-1.4,0-2.5-1.1-2.5-2.5s1.1-2.5,2.5-2.5h20.1
		c1.4,0,2.5,1.1,2.5,2.5s-1.1,2.5-2.5,2.5H147v15.7l19.8,31.2C169.8,83.3,167.7,87.1,162.1,87.1z M125.5,67h28l-10.7-16.9l-0.8-1.2
		v-1.5V31.7h-5v15.7v1.5l-0.8,1.2L125.5,67z"/>
	<path fill="#E2C751" d="M239.6,69.5h-16.9l-2,19c-0.1,0.6-0.6,1.1-1.2,1.1h0c-0.6,0-1.1-0.4-1.3-1.1l-3-19.1h-15.9
		c-1.4,0-2.5-1.1-2.5-2.5c0-6.4,4.9-12.6,10.1-12.6V34.3c-2.8,0-5-2.3-5-5s2.3-5,5-5h25.2c2.8,0,5,2.3,5,5s-2.3,5-5,5v20.1
		c5.2,0,10.1,6.1,10.1,12.6C242.1,68.3,241,69.5,239.6,69.5z M215.7,35.5c0-0.7-0.6-1.3-1.3-1.3c-0.7,0-1.3,0.6-1.3,1.3v17.6
		c0,0.7,0.6,1.3,1.3,1.3c0.7,0,1.3-0.6,1.3-1.3V35.5z"/>
	<path fill="#E2C751" d="M340.2,45.6c0,7.5-9,15.7-21.3,16.3c-1.6,2-3,3.2-3.7,3.7c-2.1,1.9-2.6,3.9-2.6,6.4s1.3,5,5,5
		c3.8,0,7.5,2.5,7.5,6.3v2.5c0,0.7-0.6,1.3-1.3,1.3h-32.7c-0.7,0-1.3-0.6-1.3-1.3v-2.5c0-3.8,3.8-6.3,7.5-6.3c3.8,0,5-2.5,5-5
		s-0.6-4.5-2.6-6.4c-0.7-0.6-2.2-1.7-3.7-3.7c-12.3-0.6-21.3-8.8-21.3-16.3v-5c0-2.1,1.7-3.8,3.8-3.8h11.3V33c0-3.5,2.8-6.3,6.3-6.3
		h22.6c3.5,0,6.3,2.8,6.3,6.3v3.8h11.3c2.1,0,3.8,1.7,3.8,3.8V45.6z M289.9,41.8h-10.1v3.8c0,3.9,5.2,9.2,13,10.8
		C291.1,52.8,289.9,48,289.9,41.8z M335.2,41.8h-10.1c0,6.2-1.3,11-2.9,14.6c7.7-1.6,13-7,13-10.8V41.8z"/>
	<path fill="#E2C751" d="M59.5,181.5c-13.3,0-27.7-3.1-27.7-10.1c0-5.3,8-7.9,14.7-9c1.4-0.2,2.7,0.7,2.9,2c0.2,1.4-0.7,2.7-2,2.9
		c-8.1,1.4-10.4,3.6-10.5,4.1c0.4,1.3,7.9,5,22.6,5s22.2-3.7,22.6-5.1c-0.1-0.4-2.4-2.6-10.5-4c-1.4-0.2-2.3-1.5-2-2.9
		c0.2-1.4,1.5-2.3,2.9-2c6.7,1.1,14.7,3.7,14.7,9C87.2,178.3,72.8,181.5,59.5,181.5z M72.1,151.3c0,1.4-1.1,2.5-2.5,2.5H67v15.1
		c0,1.4-1.1,2.5-2.5,2.5H54.5c-1.4,0-2.5-1.1-2.5-2.5v-15.1h-2.5c-1.4,0-2.5-1.1-2.5-2.5v-15.1c0-2.8,2.2-5,5-5H67c2.8,0,5,2.2,5,5
		V151.3z M59.5,129.9c-4.9,0-8.8-3.9-8.8-8.8s3.9-8.8,8.8-8.8s8.8,3.9,8.8,8.8S64.4,129.9,59.5,129.9z"/>
	<path fill="#E2C751" d="M169.7,151.3c0,0.6-0.5,1.3-1.1,1.4l-7.3,1.1c-0.4,1.3-0.9,2.4-1.5,3.6c1.3,1.9,2.8,3.7,4.2,5.4
		c0.2,0.3,0.4,0.6,0.4,1c0,0.4-0.1,0.6-0.4,0.9c-0.9,1.3-6.2,7-7.6,7c-0.4,0-0.7-0.2-1-0.4l-5.4-4.2c-1.1,0.6-2.4,1.1-3.6,1.5
		c-0.3,2.4-0.5,5-1.1,7.3c-0.2,0.6-0.7,1.1-1.4,1.1h-8.7c-0.7,0-1.3-0.5-1.4-1.2l-1.1-7.2c-1.2-0.4-2.4-0.9-3.5-1.5l-5.5,4.2
		c-0.3,0.2-0.6,0.4-1,0.4s-0.7-0.2-1-0.4c-2.1-1.9-4.8-4.3-6.5-6.6c-0.2-0.3-0.3-0.6-0.3-0.9c0-0.4,0.1-0.6,0.3-0.9
		c1.3-1.8,2.8-3.5,4.1-5.4c-0.7-1.3-1.2-2.6-1.6-3.9l-7.2-1.1c-0.7-0.1-1.1-0.7-1.1-1.4v-8.7c0-0.6,0.5-1.3,1.1-1.4l7.3-1.1
		c0.4-1.3,0.9-2.4,1.5-3.6c-1.3-1.9-2.8-3.7-4.2-5.4c-0.2-0.3-0.4-0.6-0.4-0.9c0-0.4,0.2-0.6,0.4-0.9c0.9-1.3,6.2-7,7.6-7
		c0.4,0,0.7,0.2,1,0.4l5.4,4.2c1.1-0.6,2.4-1.1,3.6-1.5c0.3-2.4,0.5-5,1.1-7.3c0.2-0.6,0.7-1.1,1.4-1.1h8.7c0.7,0,1.3,0.5,1.4,1.2
		l1.1,7.2c1.2,0.4,2.4,0.9,3.5,1.5l5.6-4.2c0.2-0.2,0.6-0.4,0.9-0.4c0.4,0,0.7,0.2,1,0.4c2.1,1.9,4.8,4.4,6.5,6.7
		c0.2,0.2,0.3,0.6,0.3,0.9c0,0.4-0.1,0.6-0.3,0.9c-1.3,1.8-2.8,3.5-4.1,5.4c0.7,1.3,1.2,2.6,1.6,3.9l7.2,1.1
		c0.7,0.1,1.1,0.7,1.1,1.4V151.3z M139.5,136.8c-5.5,0-10.1,4.5-10.1,10.1c0,5.5,4.5,10.1,10.1,10.1s10.1-4.5,10.1-10.1
		C149.6,141.4,145,136.8,139.5,136.8z"/>
	<path fill="#E2C751" d="M248.2,170l-5.8,5.7c-2.1,2.1-5,3.3-8,3.3c-3,0-5.9-1.2-8-3.3l-8.1-8.1c-2.1-2.1-3.3-5-3.3-8
		c0-3.1,1.3-6.1,3.5-8.2l-3.5-3.5c-2.2,2.2-5.1,3.5-8.2,3.5c-3,0-5.9-1.2-8-3.3l-8.2-8.2c-2.2-2.2-3.3-5-3.3-8c0-3,1.2-5.9,3.3-8
		l5.8-5.7c2.1-2.1,5-3.3,8-3.3c3,0,5.9,1.2,8,3.3l8.1,8.1c2.1,2.1,3.3,5,3.3,8c0,3.1-1.3,6.1-3.5,8.2l3.5,3.5
		c2.2-2.2,5.1-3.5,8.2-3.5c3,0,5.9,1.2,8,3.3l8.2,8.2c2.2,2.2,3.3,5,3.3,8C251.6,165,250.4,167.9,248.2,170z M215.3,131.6l-8.1-8.1
		c-0.7-0.7-1.7-1.1-2.7-1.1c-1,0-2,0.4-2.7,1.1l-5.8,5.7c-0.7,0.7-1.1,1.7-1.1,2.6c0,1,0.4,2,1.1,2.7l8.2,8.2
		c0.7,0.7,1.7,1.1,2.7,1.1c1.1,0,2-0.4,2.8-1.2c-1.3-1.3-2.8-2.4-2.8-4.4c0-2.1,1.7-3.8,3.8-3.8c2,0,3.1,1.5,4.4,2.8
		c0.8-0.8,1.3-1.7,1.3-2.9C216.4,133.3,216,132.3,215.3,131.6z M242.9,159.3l-8.2-8.2c-0.7-0.7-1.7-1.1-2.7-1.1
		c-1.1,0-2,0.4-2.8,1.3c1.3,1.3,2.8,2.4,2.8,4.4c0,2.1-1.7,3.8-3.8,3.8c-2,0-3.1-1.5-4.4-2.8c-0.8,0.8-1.3,1.7-1.3,2.9
		c0,1,0.4,2,1.1,2.7l8.1,8.1c0.7,0.7,1.7,1.1,2.7,1.1c1,0,2-0.4,2.7-1l5.8-5.7c0.7-0.7,1.1-1.7,1.1-2.6
		C244,161,243.6,160,242.9,159.3z"/>
	<path fill="#E2C751" d="M337.7,146.9c0,16.7-13.5,30.2-30.2,30.2s-30.2-13.5-30.2-30.2s13.5-30.2,30.2-30.2
		S337.7,130.2,337.7,146.9z M317.4,137.9c0.2,0,0.4-0.7,0.5-0.9c0.2-0.3,0.6-0.4,0.9-0.6c0.7-0.3,1.3-0.4,2-0.5
		c0.7-0.2,1.5-0.2,2,0.4c-0.1-0.1,0.8-0.9,0.9-1c0.4-0.2,0.9-0.1,1.2-0.5c0.1-0.1,0.1-0.9,0.1-0.9c-0.7,0.1-0.9-0.6-0.9-1.1
		c0,0-0.1,0.2-0.2,0.3c0-0.6-0.7-0.2-1-0.2c-0.9-0.2-0.8-0.9-1.1-1.5c-0.2-0.4-0.6-0.5-0.7-0.8c-0.2-0.2-0.2-0.7-0.6-0.8
		c-0.2,0-0.7,0.8-0.7,0.8c-0.4-0.2-0.5,0.1-0.8,0.2c-0.2,0.2-0.4,0.1-0.7,0.2c0.7-0.2-0.3-0.6-0.7-0.5c0.6-0.2,0.3-0.7,0-1
		c0.1,0,0.1,0,0.2,0c-0.1-0.4-1.2-0.7-1.5-0.9c-0.4-0.2-2.2-0.6-2.6-0.4c-0.5,0.3,0.1,1.1,0.1,1.5c0,0.5-0.5,0.6-0.5,1
		c0,0.7,1.3,0.6,0.9,1.5c-0.2,0.6-0.9,0.7-1.3,1.1c-0.3,0.4,0,1.1,0.4,1.4c0.3,0.2-0.6,0.6-0.7,0.7c-0.7,0.3-1.2-0.7-1.3-1.3
		c-0.1-0.4-0.2-0.9-0.6-1.2c-0.2-0.1-1-0.2-1.1,0c-0.2-0.6-1.1-0.8-1.6-1c-0.8-0.3-1.5-0.3-2.3-0.2c0.3,0-0.1-1.3-0.7-1.1
		c0.2-0.4,0.1-0.8,0.2-1.2c0.1-0.3,0.2-0.6,0.5-0.9c0.1-0.2,0.9-1.1,0.7-1.1c0.7,0.1,1.4,0.1,2-0.4c0.4-0.4,0.5-0.9,0.9-1.3
		c0.5-0.6,1.1,0.2,1.7,0.2c0.8,0,0.7-0.8,0.3-1.2c0.5,0,0.1-0.9-0.2-1c-0.4-0.1-1.7,0.2-1,0.5c-0.2-0.1-1.1,1.9-1.7,0.9
		c-0.2-0.2-0.2-1-0.6-1.1c-0.3,0-0.5,0.4-0.6,0.6c0.2-0.5-1.1-0.9-1.4-0.9c0.6-0.4,0.1-0.8-0.3-1.1c-0.3-0.2-1.3-0.4-1.6,0
		c-0.7,0.9,0.8,1,1.2,1.3c0.1,0.1,0.6,0.4,0.3,0.6c-0.2,0.1-0.9,0.3-1,0.5c-0.2,0.4,0.3,0.7-0.1,1.1c-0.4-0.4-0.4-0.9-0.6-1.3
		c0.4,0.4-1.4,0.2-1.4,0.2c-0.6,0-1.5,0.4-2-0.2c-0.1-0.2-0.1-1.1,0.2-0.9c-0.4-0.3-0.6-0.6-0.8-0.7c-1.3,0.4-2.5,1-3.7,1.6
		c0.2,0,0.3,0,0.5,0c0.3-0.1,0.6-0.3,0.9-0.5c0.4-0.2,1.2-0.6,1.7-0.3c0-0.1,0.2-0.2,0.2-0.2c0.3,0.3,0.6,0.6,0.8,1
		c-0.3-0.2-0.8-0.1-1.2,0c-0.3,0.1-0.7,0.2-0.9,0.5c0.1,0.2,0.3,0.5,0.2,0.7c-0.5-0.4-0.9-0.9-1.6-1c-0.3,0-0.6,0-0.9,0
		c-3.8,2.1-7,5.1-9.2,8.7c0.2,0.2,0.3,0.3,0.5,0.3c0.4,0.1,0,1.3,0.7,0.7c0.2,0.2,0.3,0.5,0.1,0.7c0,0,1.6,1,1.7,1.1
		c0.3,0.2,0.7,0.5,0.8,0.8c0.1,0.3-0.2,0.6-0.4,0.7c0-0.1-0.6-0.7-0.7-0.5c-0.1,0.2,0,1.3,0.4,1.2c-0.6,0-0.4,2.5-0.5,2.9
		c0,0,0.1,0,0.1,0c-0.1,0.5,0.3,2.3,1.1,2.1c-0.5,0.1,0.9,1.9,1.1,2c0.5,0.4,1.1,0.6,1.5,1.1c0.4,0.6,0.4,1.4,0.9,1.8
		c-0.2,0.5,0.8,1,0.8,1.7c-0.1,0-0.1,0-0.2,0.1c0.2,0.5,0.9,0.5,1.2,1.1c0.2,0.3,0,1.1,0.5,0.9c0.1-0.9-0.5-1.7-0.9-2.4
		c-0.2-0.4-0.5-0.7-0.7-1.1c-0.2-0.4-0.2-0.8-0.4-1.2c0.2,0,1,0.4,0.9,0.5c-0.3,0.8,1.3,2.2,1.7,2.7c0.1,0.1,1,1.3,0.6,1.3
		c0.5,0,1.2,0.8,1.5,1.2c0.4,0.6,0.3,1.3,0.5,2c0.2,0.8,1.3,1.1,2,1.5c0.6,0.3,1,0.7,1.6,0.9c0.8,0.3,1,0,1.7-0.1c1-0.2,1.1,1,2,1.4
		c0.5,0.3,1.6,0.7,2.2,0.4c-0.2,0.1,0.8,1.7,0.9,1.8c0.4,0.5,1,0.7,1.4,1.2c0.1-0.1,0.2-0.2,0.3-0.4c-0.2,0.4,0.6,1.3,1,1.2
		c0.4-0.1,0.6-0.9,0.6-1.3c-0.8,0.4-1.5,0.1-1.9-0.7c-0.1-0.2-0.7-1.3-0.2-1.3c0.7,0,0.2-0.6,0.2-1.1c-0.1-0.6-0.6-0.9-0.9-1.4
		c-0.2,0.5-1,0.4-1.3,0c0,0.1-0.1,0.3-0.1,0.5c-0.2,0-0.4,0-0.6,0c0.1-0.5,0.1-1.1,0.2-1.6c0.2-0.7,1.5-2.1-0.2-2
		c-0.6,0-0.8,0.3-1,0.8c-0.2,0.5-0.1,0.9-0.7,1.1c-0.4,0.2-1.5,0.1-1.9-0.1c-0.7-0.4-1.3-1.8-1.3-2.6c0-1.1,0.5-2,0-3
		c0.2-0.2,0.5-0.6,0.7-0.8c0.2-0.2,0.5,0.1,0.6-0.4c-0.1-0.1-0.3-0.2-0.3-0.2c0.6,0.3,1.7-0.4,2.2,0c0.3,0.2,0.7,0.3,0.9-0.1
		c0-0.1-0.3-0.6-0.1-0.9c0.1,0.7,0.6,0.8,1.1,0.4c0.2,0.2,0.9,0.2,1.3,0.4c0.4,0.3,0.5,0.7,1,0.1c0.3,0.5,0.4,0.5,0.5,0.9
		c0.1,0.4,0.4,1.5,0.7,1.7c0.8,0.5,0.6-0.9,0.5-1.3c0,0,0-1.3-0.1-1.3c-1.3-0.3-0.8-1.3-0.1-1.9c0.1-0.1,1-0.4,1.4-0.7
		c0.4-0.3,0.8-0.9,0.6-1.4c0.2,0,0.4-0.2,0.4-0.4c-0.1,0-0.6-0.4-0.7-0.4c0.3-0.2,0.2-0.4,0.1-0.6c0.4-0.2,0.2-0.7,0.6-0.8
		c0.4,0.6,1.3-0.1,0.9-0.6c0.4-0.5,1.3-0.3,1.5-0.8c0.6,0.2,0.2-0.6,0.5-1c0.3-0.4,0.7-0.4,1.1-0.6c0,0,1-0.6,0.7-0.6
		c0.7,0.1,2-0.6,1-1.2c0.2-0.4-0.4-0.5-0.7-0.6c0.3-0.1,0.6,0.1,0.9-0.1c0.5-0.4,0.2-0.5-0.3-0.6c-0.6-0.2-1.3,0.2-1.7,0.5
		C318,137.4,317.8,137.9,317.4,137.9z M325.7,164.2c-0.2-0.2-0.7-0.2-1-0.3c-0.3-0.1-0.6-0.2-0.9-0.3c0.1-0.8-0.8-1.1-1.3-1.5
		c-0.5-0.4-0.8-0.8-1.6-0.7c-0.1,0-0.9,0.3-0.7,0.5c-0.5-0.4-0.7-0.7-1.4-0.9c-0.6-0.2-1.1-1-1.7-0.3c-0.3,0.3-0.2,0.8-0.3,1.1
		c-0.5-0.4,0.5-0.9,0.1-1.4c-0.5-0.6-1.3,0.4-1.7,0.6c-0.2,0.2-0.5,0.3-0.7,0.5c-0.2,0.3-0.3,0.6-0.4,0.9c-0.1-0.3-0.8-0.2-0.8-0.5
		c0.2,0.9,0.2,1.9,0.4,2.9c0.1,0.6,0,1.5-0.5,1.9c-0.5,0.4-1.1,0.9-1.1,1.6c-0.1,0.5,0,0.9,0.5,1c0,0.6-0.6,1-0.6,1.7
		c0,0,0,0.4,0.1,0.6C317.2,170.7,322,168,325.7,164.2z"/>
</g>
</svg>
