<?xml version="1.0" encoding="utf-8"?>
<!-- Generator: Adobe Illustrator 18.1.1, SVG Export Plug-In . SVG Version: 6.00 Build 0)  -->
<svg version="1.1" id="Layer_1" xmlns="http://www.w3.org/2000/svg" xmlns:xlink="http://www.w3.org/1999/xlink" x="0px" y="0px"
	 viewBox="0 0 184 122" enable-background="new 0 0 184 122" xml:space="preserve">
<g>
	<path fill="#FFFFFF" d="M29,119.1c0-1.4,0-2.6,0-3.7c0-13.7,0-27.4,0-41.1c0-2.3,0.4-3.6,3-3.5c4.3,0.1,8.6-0.4,12.8,0.1
		c9,1.1,14.4,7.3,14.6,16.3c0.1,8.5,0,17,0,25.5c0,2.1,0,4.1,0,6.3c6.1,0,11.8,0,17.6,0c0-10.8,0-21.2,0-31.7
		c0-15.2-8.7-27.5-23.2-32.3c-13.4-4.4-26.6-2.4-39.6,2c-2.1,0.7-2.9,1.6-2.8,3.9c0.1,18.3,0.1,36.7,0.1,55c0,1.1,0.1,2.1,0.2,3.2
		C17.4,119.1,23,119.1,29,119.1z M136.3,102c-4.9,0.3-9.5,0.8-14.1,0.7c-6.7-0.1-12.6-2.3-16.4-8.3c-6.1-9.5,0.2-22,12-23.5
		c6-0.7,12.2-0.1,18.6-0.1c1.1-4.5,2.2-9.4,3.4-14.3c0.4-1.7-0.3-2.4-1.9-2.7c-8.2-1.3-16.4-1.8-24.7-0.1
		c-13.3,2.9-24.4,13.7-26.7,26.4c-2.5,13.9,3.4,27.3,15.8,34.8c11.4,6.8,23.8,6.4,36.3,4.1c0.5-0.1,1.3-1.5,1.2-2.2
		C138.6,111.8,137.4,106.8,136.3,102z M171.5,52.9c-5.1,1.1-9.7,2.1-14.3,3c-2.4,0.5-3.3,1.7-3.2,4.3c0.1,18.5,0.1,36.9,0.1,55.4
		c0,1.2,0.1,2.3,0.1,3.5c6,0,11.6,0,17.3,0C171.5,97.2,171.5,75.5,171.5,52.9z M162.9,46.4c5.4,0,9.9-4.5,9.9-9.9
		c0-5.6-4.5-10-10.2-9.9c-5.6,0.1-9.9,4.4-9.9,9.9C152.7,42.1,157.2,46.4,162.9,46.4z"/>
	<path fill="#FFFFFF" d="M175.1,2.6c-1,4.5-1.9,9-3,13.9C118.9,18.5,67,28.8,15.7,43.3c1.3-0.6,2.5-1.2,3.8-1.8
		c1.3-0.6,2.6-1.2,3.9-1.8c31.8-14.1,64.9-23.6,99-29.7c16.6-3,33.3-5.4,50-8.1c0.8-0.1,1.7,0,2.6,0C175.1,2.2,175.1,2.4,175.1,2.6z
		"/>
	<path fill="#FFFFFF" d="M29,119.1c-6,0-11.5,0-17.4,0c-0.1-1.1-0.2-2.2-0.2-3.2c0-18.3,0-36.7-0.1-55c0-2.3,0.7-3.2,2.8-3.9
		c13-4.3,26.2-6.4,39.6-2C68.2,59.8,76.9,72.1,77,87.3c0,10.5,0,21,0,31.7c-5.9,0-11.5,0-17.6,0c0-2.2,0-4.2,0-6.3
		c0-8.5,0.1-17,0-25.5c-0.1-9-5.6-15.3-14.6-16.3c-4.2-0.5-8.6,0-12.8-0.1c-2.6-0.1-3,1.3-3,3.5c0.1,13.7,0,27.4,0,41.1
		C29,116.6,29,117.7,29,119.1z"/>
	<path fill="#FFFFFF" d="M136.3,102c1.1,4.8,2.4,9.8,3.4,14.8c0.1,0.6-0.6,2.1-1.2,2.2c-12.5,2.3-24.9,2.8-36.3-4.1
		c-12.4-7.4-18.4-20.9-15.8-34.8c2.3-12.7,13.4-23.6,26.7-26.4c8.3-1.8,16.5-1.2,24.7,0.1c1.6,0.3,2.4,0.9,1.9,2.7
		c-1.2,4.9-2.3,9.8-3.4,14.3c-6.4,0-12.6-0.6-18.6,0.1c-11.8,1.5-18,14-12,23.5c3.8,5.9,9.7,8.2,16.4,8.3
		C126.8,102.8,131.4,102.3,136.3,102z"/>
	<path fill="#FFFFFF" d="M171.5,52.9c0,22.5,0,44.3,0,66.2c-5.8,0-11.4,0-17.3,0c-0.1-1.1-0.1-2.3-0.1-3.5c0-18.5,0.1-36.9-0.1-55.4
		c0-2.6,0.8-3.8,3.2-4.3C161.8,55,166.4,54,171.5,52.9z"/>
	<path fill="#FFFFFF" d="M162.9,46.4c-5.7,0-10.2-4.3-10.2-9.9c0-5.5,4.3-9.8,9.9-9.9c5.7-0.1,10.2,4.3,10.2,9.9
		C172.8,41.8,168.3,46.3,162.9,46.4z"/>
</g>
</svg>
